<svg width="430" height="393" viewBox="0 0 430 393" fill="none" xmlns="http://www.w3.org/2000/svg">
<path d="M262.103 42.9171C196.893 42.9171 153.123 81.3671 153.123 155.597V208.357C159.373 205.227 166.523 203.437 174.113 203.437C181.703 203.437 188.853 205.227 195.553 208.357V155.147C195.553 106.857 221.903 82.2671 262.103 82.2671C302.303 82.2671 328.653 106.857 328.653 155.147V270.957H371.083V155.147C371.533 80.4771 327.313 42.9171 262.103 42.9171Z" fill="white"/>
<path d="M57.5426 170.357C52.1826 173.037 47.2726 177.507 43.6926 183.327C40.1226 189.137 38.7826 195.397 39.2226 201.657C39.6726 212.837 45.9226 223.117 56.1926 228.927C65.5726 234.287 76.2926 232.947 86.5626 230.717C99.0726 227.587 109.793 226.247 120.953 232.957H121.403C140.613 244.137 140.613 272.307 121.403 283.477H120.953C109.783 290.187 99.0626 288.847 86.5626 285.717C76.7326 283.037 66.0126 281.697 56.1926 287.507C45.9226 293.317 40.1126 304.047 39.2226 314.777C38.7726 321.037 40.1126 327.297 43.6926 333.107C47.2626 338.917 51.7326 343.387 57.5426 346.077C67.3726 350.997 79.4326 350.997 89.7026 345.187C99.0826 339.827 103.553 329.537 106.233 319.697C109.803 307.177 113.823 297.337 125.443 291.077C136.613 284.367 147.333 285.717 159.833 288.847C169.663 291.527 180.383 292.867 190.203 287.057C200.473 281.247 206.283 270.517 207.173 259.787V255.317C206.723 244.137 200.473 233.857 190.203 228.047C180.823 222.677 170.103 224.027 159.833 226.257C147.323 229.387 136.603 230.727 125.443 224.017C114.273 217.307 109.813 207.917 106.233 195.397C103.553 185.557 99.0826 175.727 89.7026 169.907C79.4326 165.437 67.3726 165.437 57.5426 170.357Z" fill="white"/>
</svg>
